<mxfile host="Electron" modified="2023-05-03T04:32:33.210Z" agent="Mozilla/5.0 (Windows NT 10.0; Win64; x64) AppleWebKit/537.36 (KHTML, like Gecko) draw.io/21.2.1 Chrome/112.0.5615.87 Electron/24.1.2 Safari/537.36" etag="YtmNbCkC57zM8jvzf327" version="21.2.1" type="device">
  <diagram name="第 1 页" id="VzOM6tZm2yKVZDnpSubA">
    <mxGraphModel dx="898" dy="579" grid="1" gridSize="10" guides="1" tooltips="1" connect="1" arrows="1" fold="1" page="1" pageScale="1" pageWidth="827" pageHeight="1169" math="0" shadow="0">
      <root>
        <mxCell id="0" />
        <mxCell id="1" parent="0" />
        <mxCell id="_b4PHFPyr46qUAiXW8Yf-1" value="" style="rounded=0;whiteSpace=wrap;html=1;strokeWidth=2;sketch=1;curveFitting=1;jiggle=2;" parent="1" vertex="1">
          <mxGeometry x="120" y="80" width="640" height="360" as="geometry" />
        </mxCell>
        <mxCell id="_b4PHFPyr46qUAiXW8Yf-2" value="&lt;font style=&quot;font-size: 18px;&quot;&gt;&lt;b&gt;协议版本&lt;/b&gt;&lt;/font&gt;" style="rounded=0;whiteSpace=wrap;html=1;strokeWidth=2;fillColor=#a7d4e8;sketch=1;curveFitting=1;jiggle=2;" parent="1" vertex="1">
          <mxGeometry x="120" y="80" width="120" height="60" as="geometry" />
        </mxCell>
        <mxCell id="_b4PHFPyr46qUAiXW8Yf-3" value="&lt;b&gt;&lt;font style=&quot;font-size: 18px;&quot;&gt;头部字段名称&lt;/font&gt;&lt;/b&gt;" style="rounded=0;whiteSpace=wrap;html=1;strokeWidth=2;fillColor=#7c7f7c;sketch=1;curveFitting=1;jiggle=2;" parent="1" vertex="1">
          <mxGeometry x="120" y="140" width="120" height="60" as="geometry" />
        </mxCell>
        <mxCell id="_b4PHFPyr46qUAiXW8Yf-4" value="&lt;font style=&quot;font-size: 18px;&quot;&gt;&lt;b&gt;......&lt;/b&gt;&lt;/font&gt;" style="rounded=0;whiteSpace=wrap;html=1;strokeWidth=2;sketch=1;curveFitting=1;jiggle=2;" parent="1" vertex="1">
          <mxGeometry x="120" y="200" width="640" height="60" as="geometry" />
        </mxCell>
        <mxCell id="_b4PHFPyr46qUAiXW8Yf-6" value="&lt;b&gt;&lt;font style=&quot;font-size: 18px;&quot;&gt;空行（回车符 或 换行符）&lt;/font&gt;&lt;/b&gt;" style="rounded=0;whiteSpace=wrap;html=1;strokeWidth=2;sketch=1;curveFitting=1;jiggle=2;" parent="1" vertex="1">
          <mxGeometry x="120" y="320" width="640" height="60" as="geometry" />
        </mxCell>
        <mxCell id="_b4PHFPyr46qUAiXW8Yf-7" value="&lt;font style=&quot;font-size: 18px;&quot;&gt;&lt;b&gt;响应体&lt;/b&gt;&lt;/font&gt;" style="rounded=0;whiteSpace=wrap;html=1;strokeWidth=2;fillColor=#7C7F7C;sketch=1;curveFitting=1;jiggle=2;" parent="1" vertex="1">
          <mxGeometry x="120" y="380" width="640" height="60" as="geometry" />
        </mxCell>
        <mxCell id="_b4PHFPyr46qUAiXW8Yf-8" value="&lt;font style=&quot;font-size: 18px;&quot;&gt;&lt;b&gt;空格&lt;/b&gt;&lt;/font&gt;" style="rounded=0;whiteSpace=wrap;html=1;strokeWidth=2;sketch=1;curveFitting=1;jiggle=2;" parent="1" vertex="1">
          <mxGeometry x="240" y="80" width="60" height="60" as="geometry" />
        </mxCell>
        <mxCell id="_b4PHFPyr46qUAiXW8Yf-9" value="&lt;b&gt;&lt;font style=&quot;font-size: 18px;&quot;&gt;状态码&lt;/font&gt;&lt;/b&gt;" style="rounded=0;whiteSpace=wrap;html=1;strokeWidth=2;fillColor=#90680f;sketch=1;curveFitting=1;jiggle=2;" parent="1" vertex="1">
          <mxGeometry x="300" y="80" width="120" height="60" as="geometry" />
        </mxCell>
        <mxCell id="_b4PHFPyr46qUAiXW8Yf-11" value="&lt;b&gt;&lt;font style=&quot;font-size: 18px;&quot;&gt;状态码描述&lt;/font&gt;&lt;/b&gt;" style="rounded=0;whiteSpace=wrap;html=1;strokeWidth=2;fillColor=#ffa600;sketch=1;curveFitting=1;jiggle=2;" parent="1" vertex="1">
          <mxGeometry x="480" y="80" width="120" height="60" as="geometry" />
        </mxCell>
        <mxCell id="_b4PHFPyr46qUAiXW8Yf-12" value="&lt;b&gt;&lt;font style=&quot;font-size: 18px;&quot;&gt;空格&lt;/font&gt;&lt;/b&gt;" style="rounded=0;whiteSpace=wrap;html=1;strokeWidth=2;sketch=1;curveFitting=1;jiggle=2;" parent="1" vertex="1">
          <mxGeometry x="420" y="80" width="60" height="60" as="geometry" />
        </mxCell>
        <mxCell id="_b4PHFPyr46qUAiXW8Yf-13" value="&lt;font style=&quot;font-size: 18px;&quot;&gt;&lt;b&gt;回车符&lt;/b&gt;&lt;/font&gt;" style="rounded=0;whiteSpace=wrap;html=1;strokeWidth=2;sketch=1;curveFitting=1;jiggle=2;" parent="1" vertex="1">
          <mxGeometry x="600" y="80" width="80" height="60" as="geometry" />
        </mxCell>
        <mxCell id="_b4PHFPyr46qUAiXW8Yf-15" value="&lt;b&gt;&lt;font style=&quot;font-size: 18px;&quot;&gt;换行符&lt;/font&gt;&lt;/b&gt;" style="rounded=0;whiteSpace=wrap;html=1;strokeWidth=2;sketch=1;curveFitting=1;jiggle=2;" parent="1" vertex="1">
          <mxGeometry x="680" y="80" width="80" height="60" as="geometry" />
        </mxCell>
        <mxCell id="_b4PHFPyr46qUAiXW8Yf-16" value="&lt;font style=&quot;font-size: 18px;&quot;&gt;&lt;b&gt;回车符&lt;/b&gt;&lt;/font&gt;" style="rounded=0;whiteSpace=wrap;html=1;strokeWidth=2;sketch=1;curveFitting=1;jiggle=2;" parent="1" vertex="1">
          <mxGeometry x="600" y="140" width="80" height="60" as="geometry" />
        </mxCell>
        <mxCell id="_b4PHFPyr46qUAiXW8Yf-30" style="edgeStyle=orthogonalEdgeStyle;rounded=0;orthogonalLoop=1;jettySize=auto;html=1;exitX=1;exitY=0;exitDx=0;exitDy=0;entryX=1;entryY=1;entryDx=0;entryDy=0;shape=link;strokeColor=#FF0000;sketch=1;curveFitting=1;jiggle=2;" parent="1" source="_b4PHFPyr46qUAiXW8Yf-17" target="_b4PHFPyr46qUAiXW8Yf-22" edge="1">
          <mxGeometry relative="1" as="geometry">
            <Array as="points">
              <mxPoint x="800" y="140" />
              <mxPoint x="800" y="320" />
            </Array>
          </mxGeometry>
        </mxCell>
        <mxCell id="_b4PHFPyr46qUAiXW8Yf-17" value="&lt;b&gt;&lt;font style=&quot;font-size: 18px;&quot;&gt;换行符&lt;/font&gt;&lt;/b&gt;" style="rounded=0;whiteSpace=wrap;html=1;strokeWidth=2;sketch=1;curveFitting=1;jiggle=2;" parent="1" vertex="1">
          <mxGeometry x="680" y="140" width="80" height="60" as="geometry" />
        </mxCell>
        <mxCell id="_b4PHFPyr46qUAiXW8Yf-18" value="&lt;b&gt;&lt;font style=&quot;font-size: 18px;&quot;&gt;:(冒号)&lt;/font&gt;&lt;/b&gt;" style="rounded=0;whiteSpace=wrap;html=1;strokeWidth=2;fillColor=#0f8bfe;sketch=1;curveFitting=1;jiggle=2;" parent="1" vertex="1">
          <mxGeometry x="240" y="140" width="120" height="60" as="geometry" />
        </mxCell>
        <mxCell id="_b4PHFPyr46qUAiXW8Yf-19" value="&lt;b&gt;&lt;font style=&quot;font-size: 18px;&quot;&gt;值&lt;/font&gt;&lt;/b&gt;" style="rounded=0;whiteSpace=wrap;html=1;strokeWidth=2;fillColor=#ffd600;sketch=1;curveFitting=1;jiggle=2;" parent="1" vertex="1">
          <mxGeometry x="360" y="140" width="240" height="60" as="geometry" />
        </mxCell>
        <mxCell id="_b4PHFPyr46qUAiXW8Yf-20" value="&lt;b&gt;&lt;font style=&quot;font-size: 18px;&quot;&gt;头部字段名称&lt;/font&gt;&lt;/b&gt;" style="rounded=0;whiteSpace=wrap;html=1;strokeWidth=2;fillColor=#7c7f7c;sketch=1;curveFitting=1;jiggle=2;" parent="1" vertex="1">
          <mxGeometry x="120" y="260" width="120" height="60" as="geometry" />
        </mxCell>
        <mxCell id="_b4PHFPyr46qUAiXW8Yf-21" value="&lt;font style=&quot;font-size: 18px;&quot;&gt;&lt;b&gt;回车符&lt;/b&gt;&lt;/font&gt;" style="rounded=0;whiteSpace=wrap;html=1;strokeWidth=2;sketch=1;curveFitting=1;jiggle=2;" parent="1" vertex="1">
          <mxGeometry x="600" y="260" width="80" height="60" as="geometry" />
        </mxCell>
        <mxCell id="_b4PHFPyr46qUAiXW8Yf-22" value="&lt;b&gt;&lt;font style=&quot;font-size: 18px;&quot;&gt;换行符&lt;/font&gt;&lt;/b&gt;" style="rounded=0;whiteSpace=wrap;html=1;strokeWidth=2;sketch=1;curveFitting=1;jiggle=2;" parent="1" vertex="1">
          <mxGeometry x="680" y="260" width="80" height="60" as="geometry" />
        </mxCell>
        <mxCell id="_b4PHFPyr46qUAiXW8Yf-23" value="&lt;b&gt;&lt;font style=&quot;font-size: 18px;&quot;&gt;:(冒号)&lt;/font&gt;&lt;/b&gt;" style="rounded=0;whiteSpace=wrap;html=1;strokeWidth=2;fillColor=#0f8bfe;sketch=1;curveFitting=1;jiggle=2;" parent="1" vertex="1">
          <mxGeometry x="240" y="260" width="120" height="60" as="geometry" />
        </mxCell>
        <mxCell id="_b4PHFPyr46qUAiXW8Yf-24" value="&lt;b&gt;&lt;font style=&quot;font-size: 18px;&quot;&gt;值&lt;/font&gt;&lt;/b&gt;" style="rounded=0;whiteSpace=wrap;html=1;strokeWidth=2;fillColor=#ffd600;sketch=1;curveFitting=1;jiggle=2;" parent="1" vertex="1">
          <mxGeometry x="360" y="260" width="240" height="60" as="geometry" />
        </mxCell>
        <mxCell id="_b4PHFPyr46qUAiXW8Yf-25" value="" style="endArrow=classic;html=1;rounded=0;exitX=1;exitY=0.5;exitDx=0;exitDy=0;strokeWidth=3;strokeColor=#FF0000;sketch=1;curveFitting=1;jiggle=2;" parent="1" source="_b4PHFPyr46qUAiXW8Yf-15" edge="1">
          <mxGeometry width="50" height="50" relative="1" as="geometry">
            <mxPoint x="830" y="135" as="sourcePoint" />
            <mxPoint x="870" y="110" as="targetPoint" />
          </mxGeometry>
        </mxCell>
        <mxCell id="_b4PHFPyr46qUAiXW8Yf-27" value="" style="rounded=0;whiteSpace=wrap;html=1;fillColor=none;dashed=1;strokeWidth=2;strokeColor=#0000FF;sketch=1;curveFitting=1;jiggle=2;" parent="1" vertex="1">
          <mxGeometry x="870" y="90" width="120" height="350" as="geometry" />
        </mxCell>
        <mxCell id="_b4PHFPyr46qUAiXW8Yf-32" value="" style="endArrow=classic;html=1;rounded=0;exitX=1;exitY=0.5;exitDx=0;exitDy=0;strokeWidth=3;strokeColor=#FF0000;sketch=1;curveFitting=1;jiggle=2;" parent="1" edge="1">
          <mxGeometry width="50" height="50" relative="1" as="geometry">
            <mxPoint x="810" y="229.5" as="sourcePoint" />
            <mxPoint x="870" y="230" as="targetPoint" />
          </mxGeometry>
        </mxCell>
        <mxCell id="_b4PHFPyr46qUAiXW8Yf-33" value="" style="endArrow=classic;html=1;rounded=0;exitX=1;exitY=0.5;exitDx=0;exitDy=0;strokeWidth=3;strokeColor=#FF0000;sketch=1;curveFitting=1;jiggle=2;" parent="1" edge="1">
          <mxGeometry width="50" height="50" relative="1" as="geometry">
            <mxPoint x="760" y="409.5" as="sourcePoint" />
            <mxPoint x="870" y="409.5" as="targetPoint" />
          </mxGeometry>
        </mxCell>
        <mxCell id="_b4PHFPyr46qUAiXW8Yf-34" value="&lt;font style=&quot;font-size: 18px;&quot;&gt;&lt;b&gt;状态行&lt;/b&gt;&lt;/font&gt;" style="text;html=1;strokeColor=none;fillColor=none;align=center;verticalAlign=middle;whiteSpace=wrap;rounded=0;" parent="1" vertex="1">
          <mxGeometry x="900" y="95" width="60" height="30" as="geometry" />
        </mxCell>
        <mxCell id="_b4PHFPyr46qUAiXW8Yf-35" value="&lt;font style=&quot;font-size: 18px;&quot;&gt;&lt;b&gt;响应头部&lt;/b&gt;&lt;/font&gt;" style="text;html=1;strokeColor=none;fillColor=none;align=center;verticalAlign=middle;whiteSpace=wrap;rounded=0;" parent="1" vertex="1">
          <mxGeometry x="890" y="215" width="80" height="30" as="geometry" />
        </mxCell>
        <mxCell id="_b4PHFPyr46qUAiXW8Yf-36" value="&lt;font style=&quot;font-size: 18px;&quot;&gt;&lt;b&gt;响应体&lt;/b&gt;&lt;/font&gt;" style="text;html=1;strokeColor=none;fillColor=none;align=center;verticalAlign=middle;whiteSpace=wrap;rounded=0;" parent="1" vertex="1">
          <mxGeometry x="900" y="395" width="60" height="30" as="geometry" />
        </mxCell>
      </root>
    </mxGraphModel>
  </diagram>
</mxfile>
